<?xml version="1.0" encoding="UTF-8"?>
<svg version="1.1" xmlns="http://www.w3.org/2000/svg" width="313" height="323">
<path d="M0 0 C103.29 0 206.58 0 313 0 C313 106.59 313 213.18 313 323 C209.71 323 106.42 323 0 323 C0 216.41 0 109.82 0 0 Z " fill="#18181B" transform="translate(0,0)"/>
<path d="M0 0 C103.29 0 206.58 0 313 0 C313 106.59 313 213.18 313 323 C209.71 323 106.42 323 0 323 C0 216.41 0 109.82 0 0 Z M51 62 C48.47501911 64.87798792 46.21313195 67.87809406 44 71 C43.40445313 71.8146875 42.80890625 72.629375 42.1953125 73.46875 C38.37416907 78.78227133 35.02129314 84.19751648 32 90 C31.59007812 90.76828125 31.18015625 91.5365625 30.7578125 92.328125 C25.3314695 102.77636307 21.57277357 113.5276952 19 125 C18.80535156 125.77988281 18.61070313 126.55976562 18.41015625 127.36328125 C12.55979542 151.40527502 14.45934113 179.8690489 23 203 C23.4434375 204.24265625 23.886875 205.4853125 24.34375 206.765625 C37.05110171 240.51070342 62.36614979 266.89613551 95 282 C105.82012261 286.85820472 116.27634963 290.09959092 128 292 C128.94359375 292.20367187 129.8871875 292.40734375 130.859375 292.6171875 C162.57158149 299.15671031 198.05843963 289.69387216 224.75 272.1875 C231.93472692 267.30548516 238.54698336 261.80320238 245 256 C245.66386719 255.40832031 246.32773438 254.81664062 247.01171875 254.20703125 C259.61167529 242.31196739 269.63753143 226.02166177 276 210 C276.24347168 209.39494629 276.48694336 208.78989258 276.73779297 208.16650391 C277.55790041 206.09873765 278.34526071 204.0208022 279.125 201.9375 C279.36694092 201.3202002 279.60888184 200.70290039 279.8581543 200.06689453 C284.85648793 186.19082126 285.55056272 171.22282263 285.4375 156.625 C285.43545563 155.82249817 285.43341125 155.01999634 285.43130493 154.19317627 C285.37966148 141.71034815 284.34551873 130.07349563 281 118 C280.67708984 116.48019531 280.67708984 116.48019531 280.34765625 114.9296875 C278.57753303 106.99305658 274.75156819 99.98854713 270.97265625 92.85253906 C270.13417607 91.25555422 269.32939648 89.64095776 268.53125 88.0234375 C253.78934729 58.96817576 225.37596975 37.3945515 195 27 C194.3694873 26.78214844 193.73897461 26.56429688 193.08935547 26.33984375 C179.16271703 21.57859984 166.00460083 19.6221471 151.25 19.6875 C149.27265869 19.69487183 149.27265869 19.69487183 147.25537109 19.70239258 C110.62230411 20.14209762 76.91830897 36.39255531 51 62 Z " fill="#161424" transform="translate(0,0)"/>
<path d="M0 0 C3.6061486 1.09082787 6.09309399 2.56327907 8.1953125 5.6640625 C9.05642961 10.12615596 8.89215475 14.5291537 8.78125 19.05859375 C8.77276031 20.36108566 8.76427063 21.66357758 8.75552368 23.00553894 C8.73268922 26.45691864 8.67381841 29.90676664 8.6072998 33.35754395 C8.54575741 36.88333415 8.51848354 40.40937358 8.48828125 43.93554688 C8.4240649 50.84574216 8.31858725 57.75467095 8.1953125 64.6640625 C14.6303125 64.1690625 14.6303125 64.1690625 21.1953125 63.6640625 C21.30488281 62.58769531 21.41445312 61.51132813 21.52734375 60.40234375 C24.04040802 36.8169509 24.04040802 36.8169509 29.1953125 28.6640625 C29.6284375 27.5709375 30.0615625 26.4778125 30.5078125 25.3515625 C33.27138431 18.75929224 37.67128658 12.79559494 44.1953125 9.6640625 C48.38235173 8.9212007 50.56792577 8.7616582 54.2734375 10.81640625 C64.39232081 18.71454227 66.9842941 30.65086254 69.1953125 42.6640625 C69.55545174 44.0638037 69.92776059 45.46056333 70.3203125 46.8515625 C71.44768352 51.76367907 71.8446716 56.6443612 72.1953125 61.6640625 C73.23042969 61.75042969 74.26554687 61.83679688 75.33203125 61.92578125 C98.85612088 64.05727531 121.48443784 67.96901896 143.4387207 76.75952148 C144.33170364 77.11698959 145.22468658 77.4744577 146.14472961 77.84275818 C146.82142197 78.1137886 147.49811432 78.38481903 148.1953125 78.6640625 C148.18420944 77.760616 148.17310638 76.85716949 148.16166687 75.92634583 C148.06143302 67.40733892 147.98533138 58.88853038 147.93625164 50.3690691 C147.91017062 45.98919814 147.8748007 41.60981488 147.81811523 37.23022461 C147.76374087 33.00267948 147.73388071 28.77560307 147.72092628 24.54773521 C147.71169602 22.93575347 147.69367091 21.32379705 147.66666222 19.71201515 C147.63029703 17.45173586 147.62536986 15.19338665 147.62768555 12.93286133 C147.61658249 11.64712723 147.60547943 10.36139313 147.59403992 9.03669739 C148.35128986 4.78916035 149.87889879 3.32806057 153.1953125 0.6640625 C156.22179585 -0.24331891 157.9449932 0.19973117 161.1953125 0.6640625 C163.62650873 2.53421344 164.83600423 3.94544595 166.1953125 6.6640625 C166.29178357 9.31095497 166.32844678 11.93222694 166.32128906 14.5793457 C166.32409126 15.80667168 166.32409126 15.80667168 166.32695007 17.05879211 C166.33096047 18.84086606 166.3330295 20.62294516 166.33341217 22.40502357 C166.33682964 26.20748916 166.35820611 30.0097841 166.37864304 33.81219006 C166.41660117 40.89149746 166.447941 47.97062809 166.44580078 55.05004883 C166.44500851 59.97392003 166.46860437 64.89717327 166.5076828 69.8208828 C166.51807458 71.68851116 166.5197177 73.55621147 166.51203156 75.42385292 C166.47479728 85.48416006 166.75388249 93.78545158 171.0824585 103.02946472 C172.98939205 107.54398583 173.22042833 112.12272883 171.35546875 116.74609375 C169.38815793 119.99844935 166.53429282 121.99149777 163.1953125 123.6640625 C161.55619545 123.91992467 159.90877108 124.12625611 158.2578125 124.2890625 C154.72143688 124.83725447 153.46117703 125.38522897 150.953125 128.015625 C149.61390818 129.89052854 148.31955409 131.79865921 147.08203125 133.7421875 C136.61619479 149.95014955 117.07027352 161.48450933 98.48046875 165.8203125 C83.51122975 168.63198721 65.74251897 168.44102621 51.1953125 163.6640625 C50.23842529 163.36604736 50.23842529 163.36604736 49.26220703 163.06201172 C39.69661344 160.03951055 31.95708901 156.16614085 24.1953125 149.6640625 C23.49148437 149.09816406 22.78765625 148.53226563 22.0625 147.94921875 C3.90361486 132.81681447 -7.27437684 113.13124005 -9.8046875 89.6640625 C-10.17429762 83.1822034 -10.13527886 76.68551009 -10.140625 70.1953125 C-10.14706566 68.34256898 -10.15379493 66.48982644 -10.16079712 64.63708496 C-10.17268899 60.78114458 -10.17648554 56.92529333 -10.17529297 53.06933594 C-10.17508836 48.13195056 -10.20257171 43.19513161 -10.23683739 38.25788116 C-10.25905871 34.44373948 -10.26313225 30.62973629 -10.26207352 26.8155365 C-10.26442967 24.99427813 -10.27325403 23.17301596 -10.28873825 21.3518219 C-10.30833467 18.81291323 -10.3025896 16.27525693 -10.29052734 13.73632812 C-10.30176636 12.98926605 -10.31300537 12.24220398 -10.32458496 11.47250366 C-10.28137142 7.8930429 -9.87950708 5.7881408 -8.01651001 2.6986084 C-5.39671719 0.28879083 -3.52074457 0.07127013 0 0 Z " fill="#463A67" transform="translate(82.8046875,85.3359375)"/>
<path d="M0 0 C3.19185426 0.86186009 4.78334348 2.20200007 7.09765625 4.56640625 C7.5955224 7.40784035 7.77004248 9.65704176 7.7253418 12.49682617 C7.73261292 13.2925 7.73988403 14.08817383 7.74737549 14.90795898 C7.76597383 17.53804968 7.74989237 20.16678343 7.734375 22.796875 C7.74241721 24.63049023 7.75293652 26.46409613 7.76582336 28.29768372 C7.79440249 33.12928182 7.79494517 37.96045147 7.78796387 42.79211426 C7.78065037 50.50721311 7.81215573 58.22217186 7.85041237 65.93715858 C7.85921514 68.62309921 7.85397811 71.30873505 7.84684753 73.99467468 C7.85023566 75.65945516 7.85398599 77.32423496 7.8581543 78.98901367 C7.85245926 79.72648331 7.84676422 80.46395294 7.84089661 81.22377014 C7.88604458 89.30664304 10.01397194 96.75252006 12.53515625 104.37890625 C12.73947266 105.02021484 12.94378906 105.66152344 13.15429688 106.32226562 C14.0806085 109.11274331 14.97845389 111.40849818 16.7578125 113.765625 C18.09765625 115.56640625 18.09765625 115.56640625 18.09765625 119.56640625 C18.67515625 119.60765625 19.25265625 119.64890625 19.84765625 119.69140625 C22.638368 120.77668304 23.32692968 122.29295057 24.8671875 124.765625 C33.96541696 138.08081161 49.7185865 144.93043183 64.99609375 148.18359375 C85.8608316 150.75883847 105.46399515 146.34202028 122.49462891 133.82861328 C135.63227971 123.4841639 144.43108103 106.94694698 147.09765625 90.56640625 C147.18866529 87.7942201 147.23120126 85.04712976 147.22363281 82.27539062 C147.22550095 81.45363846 147.22736908 80.63188629 147.22929382 79.78523254 C147.23328732 78.00646782 147.23537169 76.227698 147.23575592 74.44892883 C147.23918158 70.66590582 147.26055165 66.88305314 147.28098679 63.10009003 C147.31897395 56.06165721 147.35026692 49.02341045 147.34814453 41.98486328 C147.34735799 37.08350099 147.37069053 32.18276834 147.41002655 27.28157043 C147.42049187 25.41570363 147.42200667 23.54976421 147.41437531 21.68388367 C147.40476357 19.0743678 147.42591276 16.46676491 147.45410156 13.85742188 C147.43880653 12.70395012 147.43880653 12.70395012 147.42320251 11.5271759 C147.50101597 7.50870134 147.9460659 5.75384814 150.5067749 2.58752441 C153.0531946 0.60109029 154.00807467 -0.10262533 157.16015625 0.00390625 C161.09765625 0.56640625 161.09765625 0.56640625 163.53515625 2.44140625 C166.45911604 6.41799157 166.2365607 9.70060345 166.22363281 14.48168945 C166.22643501 15.70901543 166.22643501 15.70901543 166.22929382 16.96113586 C166.23330422 18.74320981 166.23537325 20.52528891 166.23575592 22.30736732 C166.23917339 26.10983291 166.26054986 29.91212785 166.28098679 33.71453381 C166.31894492 40.79384121 166.35028475 47.87297184 166.34814453 54.95239258 C166.34735226 59.87626378 166.37094812 64.79951702 166.41002655 69.72322655 C166.42041833 71.59085491 166.42206145 73.45855522 166.41437531 75.32619667 C166.37714103 85.38650381 166.65622624 93.68779533 170.98480225 102.93180847 C172.8917358 107.44632958 173.12277208 112.02507258 171.2578125 116.6484375 C169.29050168 119.9007931 166.43663657 121.89384152 163.09765625 123.56640625 C161.4585392 123.82226842 159.81111483 124.02859986 158.16015625 124.19140625 C154.62378063 124.73959822 153.36352078 125.28757272 150.85546875 127.91796875 C149.51625193 129.79287229 148.22189784 131.70100296 146.984375 133.64453125 C136.51853854 149.8524933 116.97261727 161.38685308 98.3828125 165.72265625 C83.4135735 168.53433096 65.64486272 168.34336996 51.09765625 163.56640625 C50.14076904 163.26839111 50.14076904 163.26839111 49.16455078 162.96435547 C39.59895719 159.9418543 31.85943276 156.0684846 24.09765625 149.56640625 C23.39382812 149.00050781 22.69 148.43460938 21.96484375 147.8515625 C3.80595861 132.71915822 -7.37203309 113.0335838 -9.90234375 89.56640625 C-10.27195387 83.08454715 -10.23293511 76.58785384 -10.23828125 70.09765625 C-10.24472191 68.24491273 -10.25145118 66.39217019 -10.25845337 64.53942871 C-10.27034524 60.68348833 -10.27414179 56.82763708 -10.27294922 52.97167969 C-10.27274461 48.03429431 -10.30022796 43.09747536 -10.33449364 38.16022491 C-10.35671496 34.34608323 -10.3607885 30.53208004 -10.35972977 26.71788025 C-10.36208592 24.89662188 -10.37091028 23.07535971 -10.3863945 21.25416565 C-10.40599092 18.71525698 -10.40024585 16.17760068 -10.38818359 13.63867188 C-10.39942261 12.8916098 -10.41066162 12.14454773 -10.42224121 11.37484741 C-10.37904656 7.79695105 -9.97533466 5.68787674 -8.11807251 2.5970459 C-5.45972685 0.160763 -3.56133268 0.00708018 0 0 Z " fill="#8E5CED" transform="translate(82.90234375,85.43359375)"/>
<path d="M0 0 C12.71413553 -0.62428397 24.56585926 1.55360439 37 4 C37.76602539 4.14904785 38.53205078 4.2980957 39.32128906 4.45166016 C45.11184228 5.59058604 50.5245129 6.79915591 56 9 C57.47270462 9.3227144 58.95234187 9.61556061 60.4375 9.875 C64.67007871 10.76088857 67.50882615 12.40191714 71 15 C72.3191582 15.69429379 73.64649406 16.37530495 75 17 C73.75083288 26.49367011 70.95413307 37.04586693 64 44 C61.93819224 44.58243157 59.84831607 45.0671635 57.75 45.5 C56.63109375 45.7371875 55.5121875 45.974375 54.359375 46.21875 C52.90725803 46.48473007 51.45396949 46.74434043 50 47 C49.05753418 47.17644043 48.11506836 47.35288086 47.14404297 47.53466797 C36.30147404 49.35007066 25.58705515 49.22625286 14.625 49.125 C12.71354639 49.11494313 10.80208762 49.1058221 8.890625 49.09765625 C4.26028651 49.0758733 -0.36979794 49.04149499 -5 49 C-5.05400991 44.13946855 -4.6821087 39.93402274 -3.625 35.1875 C-1.21920508 23.61684006 -0.75039164 11.76915858 0 0 Z " fill="#18181C" transform="translate(155,160)"/>
<path d="M0 0 C7.39752897 4.12366963 11.11715032 11.30938848 14 19 C15.23942863 23.63154908 16.13263352 28.28730881 17 33 C17.36013924 34.3997412 17.73244809 35.79650083 18.125 37.1875 C19.25237102 42.09961657 19.6493591 46.9802987 20 52 C21.03511719 52.08636719 22.07023437 52.17273438 23.13671875 52.26171875 C44.50388758 54.19777639 65.93544266 57.16731184 86 65 C87.09183594 65.41894531 88.18367188 65.83789062 89.30859375 66.26953125 C91.55105683 67.14972133 93.7784157 68.06836787 96 69 C96 72.96 96 76.92 96 81 C95.01 81.495 95.01 81.495 94 82 C92.1953125 81.29296875 92.1953125 81.29296875 90.125 80.1875 C89.44695312 79.83042969 88.76890625 79.47335938 88.0703125 79.10546875 C86.71212633 78.38024859 85.35530345 77.65246826 84 76.921875 C81.93811059 75.97147285 80.09988237 75.49351965 77.875 75.0625 C74.61590373 74.39383299 71.47639075 73.56429646 68.3046875 72.5625 C63.33010445 71.05378488 58.35521635 69.90558562 53.25 68.9375 C52.36546143 68.76831055 51.48092285 68.59912109 50.56958008 68.42480469 C40.45190735 66.58313098 30.24946221 65.73009055 20 65 C20.00290039 65.71575195 20.00580078 66.43150391 20.00878906 67.16894531 C20.04640511 83.17725938 18.05644958 98.31003272 15 114 C14.8335498 114.86657227 14.66709961 115.73314453 14.49560547 116.62597656 C14.3307666 117.43260742 14.16592773 118.23923828 13.99609375 119.0703125 C13.85228271 119.78203613 13.70847168 120.49375977 13.56030273 121.22705078 C13 123 13 123 11 125 C8.31160615 125.26991906 5.70858064 125.08737357 3 125 C2.3125 123.4375 2.3125 123.4375 2 121 C2.70590166 119.38651048 3.41868711 117.77555907 4.171875 116.18359375 C5.55463421 112.53754469 5.96190418 108.74152179 6.53125 104.8984375 C7 102 7 102 8.0625 98.1875 C10.79889319 87.7374945 10.24522292 76.01406665 10.04150391 65.27832031 C10.01241371 63.68143989 9.9919933 62.08438899 9.97802734 60.48730469 C9.80244322 44.32761348 9.00127375 25.29666785 -0.44140625 11.48828125 C-2.06056626 9.67033146 -2.06056626 9.67033146 -5.375 9.375 C-6.24125 9.58125 -7.1075 9.7875 -8 10 C-8.268125 10.556875 -8.53625 11.11375 -8.8125 11.6875 C-10 14 -10 14 -11.4375 16.125 C-13.23692049 19.4359337 -14.17697311 22.6790314 -15.15625 26.3046875 C-16 29 -16 29 -17.48828125 32.29296875 C-19.22211559 36.24100713 -19.97793864 40.20356284 -20.6875 44.4375 C-21.120625 46.933125 -21.55375 49.42875 -22 52 C-16.06 52 -10.12 52 -4 52 C-4 52.33 -4 52.66 -4 53 C-12.91 53 -21.82 53 -31 53 C-30.566875 49.535 -30.13375 46.07 -29.6875 42.5 C-29.55819092 41.42427734 -29.42888184 40.34855469 -29.2956543 39.24023438 C-28.53057102 33.39562357 -27.29991956 28.4280485 -25 23 C-24.68417969 22.19691406 -24.36835937 21.39382812 -24.04296875 20.56640625 C-19.95240191 10.98439352 -12.74976366 -3.70547625 0 0 Z " fill="#433863" transform="translate(135,95)"/>
<path d="M0 0 C9.57 1.32 19.14 2.64 29 4 C28.01 6.64 27.02 9.28 26 12 C26 12.99 26 13.98 26 15 C28.64 15 31.28 15 34 15 C34.309375 13.906875 34.61875 12.81375 34.9375 11.6875 C35.58337897 9.44592006 36.2623117 7.2130649 37 5 C38.16756836 4.98541748 39.33513672 4.97083496 40.53808594 4.95581055 C44.97423207 4.89673751 49.40992646 4.81954031 53.84570312 4.73754883 C55.74601779 4.70480131 57.64641808 4.67662342 59.546875 4.65356445 C72.19468084 4.49613679 84.35547317 3.49202828 96.82336426 1.35269165 C100.20498176 0.80475052 103.59816162 0.40162609 107 0 C97.81057829 16.2424492 82.4197575 24.85770182 65 30 C44.07816032 33.93163837 24.55156863 29.69716385 6.64453125 18.53125 C2.41239469 15.38987029 1.06506437 12.40527486 0.19140625 7.24609375 C-0.01375303 4.8386124 0 2.41620711 0 0 Z " fill="#3B257B" transform="translate(112,204)"/>
<path d="M0 0 C11.22 0 22.44 0 34 0 C34.59225513 32.72209567 34.59225513 32.72209567 30 49 C23.90662385 49.15461854 18.1979638 48.60093792 12.1875 47.625 C10.9200293 47.43550781 10.9200293 47.43550781 9.62695312 47.2421875 C8.81548828 47.11328125 8.00402344 46.984375 7.16796875 46.8515625 C6.43860107 46.73635254 5.7092334 46.62114258 4.95776367 46.50244141 C3 46 3 46 0 44 C-1.0774367 39.72356001 -1.12859294 35.52658463 -1.1328125 31.1328125 C-1.13410156 29.83472656 -1.13539062 28.53664062 -1.13671875 27.19921875 C-1.13357666 26.1944751 -1.13357666 26.1944751 -1.13037109 25.16943359 C-1.12503315 23.13761873 -1.13032478 21.10602668 -1.13671875 19.07421875 C-1.13542969 17.77355469 -1.13414063 16.47289062 -1.1328125 15.1328125 C-1.13168457 13.95605957 -1.13055664 12.77930664 -1.12939453 11.56689453 C-0.98895286 7.69547409 -0.48050647 3.84405172 0 0 Z " fill="#19181C" transform="translate(111,159)"/>
<path d="M0 0 C0.66 -0.0103125 1.32 -0.020625 2 -0.03125 C5.02345682 0.77185572 6.0964126 2.01688209 8 4.5 C8.37403548 7.3832673 8.50714898 9.87806623 8.45410156 12.75683594 C8.45468567 13.58647354 8.45526978 14.41611115 8.45587158 15.27088928 C8.45308808 18.00914563 8.42198411 20.74630917 8.390625 23.484375 C8.38316354 25.38437302 8.37747016 27.28437874 8.37347412 29.18438721 C8.35821028 34.18228446 8.31892193 39.17971586 8.2746582 44.1774292 C8.23372172 49.27837828 8.21546657 54.37940271 8.1953125 59.48046875 C8.15242847 69.48718371 8.08416798 79.4935531 8 89.5 C7.34 89.5 6.68 89.5 6 89.5 C6 88.84 6 88.18 6 87.5 C5.27294357 87.21273041 4.54588715 86.92546082 3.79679871 86.62948608 C2.87385513 86.25675568 1.95091156 85.88402527 1 85.5 C-0.19848824 85.0468895 -0.19848824 85.0468895 -1.42118835 84.58462524 C-4.25955663 83.17445632 -5.97422219 81.96037362 -8 79.5 C-9.33490865 73.89289224 -9.14663469 68.38268738 -9.01953125 62.6484375 C-9.01289157 60.98508692 -9.00966283 59.32171954 -9.00968933 57.65835571 C-9.00041242 54.17923048 -8.9612553 50.70220058 -8.89868164 47.22363281 C-8.81930131 42.76661578 -8.79702486 38.31166394 -8.79483509 33.85400963 C-8.78986129 30.42231171 -8.76358726 26.99105523 -8.72995567 23.55952835 C-8.71472519 21.91612926 -8.70404411 20.27268145 -8.69800758 18.62922287 C-8.68461364 16.33319975 -8.64471375 14.03918456 -8.59692383 11.74365234 C-8.57866043 10.43826508 -8.56039703 9.13287781 -8.5415802 7.78793335 C-7.72452731 2.82760533 -5.173774 -0.08084022 0 0 Z " fill="#9768F2" transform="translate(240,85.5)"/>
<path d="M0 0 C0.33 0 0.66 0 1 0 C1 24.42 1 48.84 1 74 C2.65 74.66 4.3 75.32 6 76 C7.63160349 76.95457883 9.23724241 77.95505301 10.8125 79 C11.60269531 79.515625 12.39289063 80.03125 13.20703125 80.5625 C13.79871094 81.036875 14.39039063 81.51125 15 82 C15 82.66 15 83.32 15 84 C15.66 84 16.32 84 17 84 C17 56.61 17 29.22 17 1 C17.33 1 17.66 1 18 1 C18.00142502 2.0485466 18.00285004 3.0970932 18.00431824 4.17741394 C18.02105962 14.10697129 18.06404997 24.03612256 18.13209057 33.96546459 C18.16623692 39.06907602 18.19145124 44.17239203 18.19555664 49.27612305 C18.19986621 54.21068754 18.22854743 59.14458699 18.27343178 64.07894325 C18.28632234 65.95214258 18.29074475 67.82542184 18.28615379 69.6986599 C18.2672313 79.77312865 18.5543635 88.11182638 22.88838196 97.36787415 C24.62500335 101.47990355 24.48982623 104.5915639 24 109 C22.19859626 113.42464606 19.24728328 115.93214579 15 118 C12.11185075 118.64181094 9.2421988 119.02535746 6.30859375 119.40625 C2.66110641 120.0608168 -0.53814902 121.1841141 -4 122.5 C-10.2781973 124.87005444 -16.35149837 126.18415822 -23 127 C-17.38502674 119.45721925 -17.38502674 119.45721925 -15 116.625 C-2.8658778 100.69896461 -0.55390537 84.60809556 -0.48828125 65.234375 C-0.47140531 63.3457932 -0.45325122 61.45722244 -0.43388367 59.56866455 C-0.38669383 54.63689625 -0.35668487 49.7051727 -0.33044434 44.77325439 C-0.30048103 39.7250485 -0.2540055 34.67699634 -0.20898438 29.62890625 C-0.12330483 19.75268511 -0.05580365 9.87643202 0 0 Z " fill="#7247D2" transform="translate(231,91)"/>
<path d="M0 0 C3.1806068 0.73981147 4.81139324 2.22765621 7.1328125 4.49609375 C7.73408508 7.29290771 7.73408508 7.29290771 7.70043945 10.54980469 C7.7000618 11.77076843 7.69968414 12.99173218 7.69929504 14.24969482 C7.67348862 15.56335022 7.64768219 16.87700562 7.62109375 18.23046875 C7.61176362 19.59237367 7.60464844 20.95429542 7.59965515 22.31622314 C7.58060024 25.89396826 7.53151516 29.47069202 7.47613525 33.04803467 C7.42490861 36.7011534 7.40213399 40.35443782 7.37695312 44.0078125 C7.32339263 51.17103763 7.23810096 58.33342237 7.1328125 65.49609375 C5.5946548 66.00678642 4.05205961 66.50412122 2.5078125 66.99609375 C1.64929688 67.27453125 0.79078125 67.55296875 -0.09375 67.83984375 C-3.10434751 68.55221048 -5.78437818 68.60457971 -8.8671875 68.49609375 C-8.93666365 60.07299035 -8.98998637 51.65000643 -9.02262402 43.22668743 C-9.03828759 39.31549149 -9.05953813 35.40449141 -9.09350586 31.4934082 C-9.12607519 27.71977116 -9.1440353 23.94632265 -9.15181923 20.17255592 C-9.15736715 18.73201339 -9.16820086 17.29148129 -9.18437767 15.85101891 C-9.20611709 13.83527035 -9.2074126 11.81933254 -9.20776367 9.8034668 C-9.21442551 8.65541061 -9.22108734 7.50735443 -9.22795105 6.32450867 C-8.8671875 3.49609375 -8.8671875 3.49609375 -7.58808899 1.62922668 C-5.18164722 0.04469762 -2.8220213 0.08300063 0 0 Z " fill="#BCA8FA" transform="translate(82.8671875,85.50390625)"/>
<path d="M0 0 C0.33 0 0.66 0 1 0 C1.00879936 1.48765869 1.00879936 1.48765869 1.01777649 3.00537109 C1.07535359 12.41887214 1.14829264 21.83214989 1.23571491 31.24542236 C1.28016527 36.08319384 1.31947484 40.92088599 1.34643555 45.75878906 C1.37272429 50.4403738 1.41330043 55.12164895 1.46318626 59.80303955 C1.47968417 61.57607122 1.49130342 63.34915622 1.49761391 65.12225342 C1.5531587 79.31366865 2.3977654 93.19441902 8.1875 106.375 C11 112.83776596 11 112.83776596 11 115 C-2.81968546 112.50511873 -13.44503253 104.96733427 -22 94 C-23.40053506 91.19892988 -23.2075504 88.81108319 -23.25 85.6875 C-23.27578125 84.55699219 -23.3015625 83.42648438 -23.328125 82.26171875 C-22.96966225 78.69842832 -22.17796356 76.81760819 -20 74 C-19.34 74 -18.68 74 -18 74 C-18 73.34 -18 72.68 -18 72 C-16.09375 70.34375 -16.09375 70.34375 -13.5 68.5 C-12.6646875 67.8915625 -11.829375 67.283125 -10.96875 66.65625 C-8 65 -8 65 0 63 C0 42.21 0 21.42 0 0 Z " fill="#3C2779" transform="translate(72,93)"/>
<path d="M0 0 C5.50218386 5.23765579 7.13403842 13.32018743 8.875 20.4375 C9.09027344 21.30665039 9.30554688 22.17580078 9.52734375 23.07128906 C11.03407933 29.7443316 11 34.87430113 11 42 C0.44 42 -10.12 42 -21 42 C-19.69905326 31.59242606 -18.22895907 22.60977469 -14 13 C-13.74089844 12.3503125 -13.48179688 11.700625 -13.21484375 11.03125 C-7.81279646 -2.42958914 -7.81279646 -2.42958914 0 0 Z " fill="#19181C" transform="translate(134,105)"/>
<path d="M0 0 C22.76859547 1.9118668 45.60188085 4.64672354 67 13 C68.09183594 13.41894531 69.18367188 13.83789062 70.30859375 14.26953125 C72.55105683 15.14972133 74.7784157 16.06836787 77 17 C77 20.96 77 24.92 77 29 C76.34 29.33 75.68 29.66 75 30 C73.1953125 29.29296875 73.1953125 29.29296875 71.125 28.1875 C70.44695312 27.83042969 69.76890625 27.47335938 69.0703125 27.10546875 C67.71212633 26.38024859 66.35530345 25.65246826 65 24.921875 C62.93811059 23.97147285 61.09988237 23.49351965 58.875 23.0625 C55.61590373 22.39383299 52.47639075 21.56429646 49.3046875 20.5625 C44.33010445 19.05378488 39.35521635 17.90558562 34.25 16.9375 C33.36546143 16.76831055 32.48092285 16.59912109 31.56958008 16.42480469 C21.44861874 14.58253237 11.25095625 13.74695367 1 13 C1 16.63 1 20.26 1 24 C0.67 24 0.34 24 0 24 C0 16.08 0 8.16 0 0 Z " fill="#3B257B" transform="translate(154,147)"/>
<path d="M0 0 C0.33 0 0.66 0 1 0 C1 20.79 1 41.58 1 63 C5.29 62.01 9.58 61.02 14 60 C14.99 60 15.98 60 17 60 C17.01981934 60.61931396 17.03963867 61.23862793 17.06005859 61.87670898 C17.15635231 64.73067389 17.26560097 67.58400857 17.375 70.4375 C17.4059375 71.41138672 17.436875 72.38527344 17.46875 73.38867188 C17.82950126 82.37739068 19.60716721 90.34990018 22.5625 98.8125 C25.22057712 106.52324849 25.22057712 106.52324849 26 110 C21.5592429 109.29702301 17.52825525 107.78792447 13.375 106.125 C12.70726563 105.86847656 12.03953125 105.61195313 11.3515625 105.34765625 C5.19775448 102.89844066 5.19775448 102.89844066 3 100 C-0.55718741 88.28549792 -0.40207502 76.1768275 -0.29296875 64.0625 C-0.2873568 62.20207058 -0.28309429 60.34163665 -0.28010559 58.48120117 C-0.26878245 53.64139035 -0.23942699 48.80186002 -0.20599365 43.9621582 C-0.17501871 39.00085237 -0.16154232 34.03950015 -0.14648438 29.078125 C-0.11454216 19.38529505 -0.06350232 9.69267107 0 0 Z " fill="#AB8DF4" transform="translate(73,91)"/>
<path d="M0 0 C0 0.66 0 1.32 0 2 C-6.5057237 6.9461324 -13.6966292 10.55455458 -21.3125 13.4375 C-21.95703125 13.6840332 -22.6015625 13.93056641 -23.265625 14.18457031 C-30.71831112 16.86311752 -38.11453127 17.19417631 -45.9375 17.1875 C-46.72366699 17.18814453 -47.50983398 17.18878906 -48.31982422 17.18945312 C-53.80328139 17.13944854 -58.71836864 16.56492781 -64 15 C-63.3998116 10.79868118 -62.38076751 7.0075935 -61 3 C-59.25481079 2.970271 -59.25481079 2.970271 -57.47436523 2.93994141 C-53.0850147 2.86285644 -48.69595229 2.77431446 -44.30688477 2.68261719 C-42.42087565 2.64474616 -40.53480453 2.60982732 -38.64868164 2.578125 C-28.3237372 2.40252137 -18.22592674 2.02646517 -8.01586914 0.41552734 C-5.29282296 0.04034523 -2.74302309 -0.07861863 0 0 Z " fill="#19181E" transform="translate(206,218)"/>
<path d="M0 0 C2.97 0 5.94 0 9 0 C10.5173455 3.03469099 10.08507201 6.15750136 10.01953125 9.48046875 C10.00690247 10.23727432 9.99427368 10.9940799 9.98126221 11.77381897 C9.93430221 14.24534875 9.8753653 16.71632551 9.8125 19.1875 C9.79210663 20.02446411 9.77171326 20.86142822 9.7507019 21.72375488 C9.38733898 35.44231061 8.01583101 48.58996616 5 62 C4.8335498 62.83466797 4.66709961 63.66933594 4.49560547 64.52929688 C4.3307666 65.33947266 4.16592773 66.14964844 3.99609375 66.984375 C3.85228271 67.70850586 3.70847168 68.43263672 3.56030273 69.17871094 C3 71 3 71 1 73 C-1.68839385 73.26991906 -4.29141936 73.08737357 -7 73 C-7.6875 71.4375 -7.6875 71.4375 -8 69 C-7.29409834 67.38651048 -6.58131289 65.77555907 -5.828125 64.18359375 C-4.44536579 60.53754469 -4.03809582 56.74152179 -3.46875 52.8984375 C-3 50 -3 50 -1.9375 46.1875 C1.81220249 31.54299264 0.10605094 14.97276181 0 0 Z " fill="#453965" transform="translate(145,147)"/>
<path d="M0 0 C6.9429615 4.41318259 6.9429615 4.41318259 8.62109375 8.796875 C9.36891816 14.35214205 8.13579184 17.60026159 5.03125 22.0625 C2.52431304 25.14582412 0.45898626 26.56210771 -3.51953125 27.0703125 C-8.26736661 27.27468952 -11.64810034 26.99470864 -15.37890625 23.796875 C-19.53394248 19.30494394 -20.05691525 15.32898619 -19.83203125 9.42578125 C-19.10121624 5.18579417 -17.62144247 3.60707306 -14.37890625 0.796875 C-9.74699742 -1.88475643 -4.87024574 -2.46311279 0 0 Z " fill="#BEAFF5" transform="translate(184.37890625,90.203125)"/>
<path d="M0 0 C4.05112155 0.91723507 6.57950873 2.54716325 9.4375 5.625 C11.39603259 9.8554304 11.71852961 13.40475247 11 18 C9.22291388 22.4262608 6.32743676 25.07586289 2 27 C-3.1209553 28.06166146 -7.79349305 28.40683329 -12.328125 25.515625 C-15.61764628 22.17261557 -17.41945563 19.16482806 -17.6875 14.4375 C-17.2452801 9.10322247 -14.98389568 5.47553164 -11.66015625 1.328125 C-8.36038778 -1.31168978 -3.99865909 -0.43754324 0 0 Z " fill="#C0B0F8" transform="translate(244,182)"/>
<path d="M0 0 C1.06996173 9.01824887 1.10234659 17.93664124 1 27 C0.67 27 0.34 27 0 27 C0 22.05 0 17.1 0 12 C-11.22 12 -22.44 12 -34 12 C-33.67 8.37 -33.34 4.74 -33 1 C-21.98440762 0.34235269 -11.03913945 -0.16207546 0 0 Z " fill="#3B2579" transform="translate(145,147)"/>
<path d="M0 0 C1.8871875 0.0309375 1.8871875 0.0309375 3.8125 0.0625 C5.00638403 29.40791547 5.00638403 29.40791547 4.8125 41.0625 C1.4971628 39.70307303 0.18539297 38.56003265 -1.3125 35.3125 C-1.62445313 34.65765625 -1.93640625 34.0028125 -2.2578125 33.328125 C-4.4426273 28.00378642 -5.64944101 22.89415521 -6.3125 17.1875 C-6.39886719 16.51847656 -6.48523438 15.84945312 -6.57421875 15.16015625 C-7.14810988 10.43238644 -7.26206736 5.82415848 -7.1875 1.0625 C-4.43671116 0.14557039 -2.82801087 -0.04636083 0 0 Z " fill="#1E1C25" transform="translate(98.1875,160.9375)"/>
<path d="M0 0 C0.33 0 0.66 0 1 0 C1 19.47 1 38.94 1 59 C5.29 58.34 9.58 57.68 14 57 C16.66576759 56.93075928 19.33538146 56.89550516 22 57 C21.67 60.63 21.34 64.26 21 68 C18.22970414 68.50314563 15.4588348 69.00263838 12.6875 69.5 C11.90181641 69.64308594 11.11613281 69.78617187 10.30664062 69.93359375 C9.54931641 70.06894531 8.79199219 70.20429688 8.01171875 70.34375 C6.96697388 70.53227539 6.96697388 70.53227539 5.90112305 70.72460938 C4 71 4 71 1 71 C1.144375 72.02480469 1.28875 73.04960937 1.4375 74.10546875 C1.62517625 75.46612154 1.81266642 76.82679999 2 78.1875 C2.14308594 79.19780273 2.14308594 79.19780273 2.2890625 80.22851562 C2.78324613 83.84664577 3.11346131 87.34796401 3 91 C-0.84292027 87.15707973 -0.11422766 81.11232287 -0.12442017 75.92523193 C-0.12082489 75.18363831 -0.11722961 74.44204468 -0.11352539 73.67797852 C-0.11367142 72.87716354 -0.11381744 72.07634857 -0.1139679 71.25126648 C-0.11327605 68.62711801 -0.105518 66.00304219 -0.09765625 63.37890625 C-0.09578948 61.55045104 -0.0943668 59.72199532 -0.09336853 57.89353943 C-0.08956374 53.09809979 -0.07975097 48.30269078 -0.06866455 43.50726318 C-0.05840649 38.60705988 -0.05386152 33.70685159 -0.04882812 28.80664062 C-0.03812677 19.20441368 -0.02107498 9.60220939 0 0 Z " fill="#4B3981" transform="translate(90,91)"/>
<path d="M0 0 C1.64548828 0.63228516 1.64548828 0.63228516 3.32421875 1.27734375 C4.77856765 1.83093462 6.2329991 2.38430862 7.6875 2.9375 C8.40873047 3.21529297 9.12996094 3.49308594 9.87304688 3.77929688 C13.57533736 5.18244806 17.08744666 6.3104034 21 7 C21.66 7.33 22.32 7.66 23 8 C23 9.32 23 10.64 23 12 C23.86625 12.061875 23.86625 12.061875 24.75 12.125 C28.14998162 13.44721508 29.14277202 15.94456043 31 19 C31.9889089 20.34158003 32.986731 21.67672236 34 23 C20.81640625 20.0703125 20.81640625 20.0703125 18.42089844 19.52954102 C16.77764482 19.1701 15.12943491 18.83274567 13.47753906 18.51538086 C12.27629395 18.27766968 12.27629395 18.27766968 11.05078125 18.03515625 C10.32930908 17.89988525 9.60783691 17.76461426 8.86450195 17.62524414 C7 17 7 17 4.625 14.3125 C4.08875 13.219375 3.5525 12.12625 3 11 C2.70351562 10.40316406 2.40703125 9.80632812 2.1015625 9.19140625 C0.53560101 5.8511673 0 3.74672299 0 0 Z " fill="#7E58E1" transform="translate(78,193)"/>
<path d="M0 0 C9.57 1.32 19.14 2.64 29 4 C27.68 7.63 26.36 11.26 25 15 C17.25847464 15.39363688 10.47941368 13.94210433 3 12 C2.67 12.66 2.34 13.32 2 14 C1.65980848 12.60582227 1.32818221 11.20955342 1 9.8125 C0.814375 9.03519531 0.62875 8.25789062 0.4375 7.45703125 C0 5 0 5 0 0 Z " fill="#3C267D" transform="translate(112,204)"/>
<path d="M0 0 C0.33 0 0.66 0 1 0 C1 20.79 1 41.58 1 63 C5.29 62.01 9.58 61.02 14 60 C14.99 60 15.98 60 17 60 C17 63.96 17 67.92 17 72 C11.72 73.32 6.44 74.64 1 76 C1 78.64 1 81.28 1 84 C0.67 84 0.34 84 0 84 C0 56.28 0 28.56 0 0 Z " fill="#8A6DDE" transform="translate(73,91)"/>
<path d="M0 0 C0.08564209 0.57967529 0.17128418 1.15935059 0.25952148 1.7565918 C0.65087717 4.40042275 1.04417081 7.04396196 1.4375 9.6875 C1.57220703 10.59951172 1.70691406 11.51152344 1.84570312 12.45117188 C1.97783203 13.33740234 2.10996094 14.22363281 2.24609375 15.13671875 C2.42676392 16.35427856 2.42676392 16.35427856 2.61108398 17.59643555 C3.01276092 20.07886456 3.49212777 22.53729879 4 25 C-2.91391504 23.8231634 -7.44448003 20.2748126 -12 15 C-13.5625 11.4375 -13.5625 11.4375 -13 8 C-9.52279121 3.94864744 -5.51951556 0 0 0 Z " fill="#1B1921" transform="translate(73,168)"/>
<path d="M0 0 C0.33 0.66 0.66 1.32 1 2 C1.70125 1.855625 2.4025 1.71125 3.125 1.5625 C6 2 6 2 7.3515625 3.5234375 C7.81304687 4.15507812 8.27453125 4.78671875 8.75 5.4375 C10.57369782 7.80544272 11.48014479 8.85000899 14.3828125 9.6875 C16.60589679 9.91050532 18.76683947 10.03473805 21 10 C21 10.33 21 10.66 21 11 C19.205625 11.0928125 19.205625 11.0928125 17.375 11.1875 C13.01494115 11.65293799 9.28422036 12.89156779 5.1875 14.4375 C-1.15950956 16.82712493 -7.28114666 18.17552532 -14 19 C-8.5553539 11.68602541 -8.5553539 11.68602541 -5.875 8.375 C-3.74285471 5.67428263 -1.87717619 2.88280629 0 0 Z " fill="#7041DA" transform="translate(222,199)"/>
<path d="M0 0 C1.79206547 0.14084796 3.58364917 0.28783701 5.375 0.4375 C6.87160156 0.55931641 6.87160156 0.55931641 8.3984375 0.68359375 C11 1 11 1 13 2 C14.53668865 2.22467831 16.07968054 2.40796805 17.625 2.5625 C18.44226563 2.64628906 19.25953125 2.73007813 20.1015625 2.81640625 C20.72804687 2.87699219 21.35453125 2.93757812 22 3 C20.8905928 6.48670834 19.73662334 9.77484237 18 13 C13.71947031 12.4308221 10.90496315 10.91990078 7.3125 8.5625 C6.35988281 7.94503906 5.40726562 7.32757813 4.42578125 6.69140625 C2 5 2 5 0 3 C0 2.01 0 1.02 0 0 Z " fill="#1C1B23" transform="translate(115,216)"/>
<path d="M0 0 C2.97 0 5.94 0 9 0 C10.26237731 2.52475462 10.09856404 4.31200466 10.0625 7.125 C10.05347656 8.03507813 10.04445312 8.94515625 10.03515625 9.8828125 C10.02355469 10.58148438 10.01195312 11.28015625 10 12 C8.52093108 12.02689216 7.04172517 12.04634621 5.5625 12.0625 C4.32693359 12.07990234 4.32693359 12.07990234 3.06640625 12.09765625 C1 12 1 12 0 11 C-0.07226502 9.14712498 -0.0838122 7.29166122 -0.0625 5.4375 C-0.05347656 4.42558594 -0.04445312 3.41367188 -0.03515625 2.37109375 C-0.02355469 1.58863281 -0.01195312 0.80617187 0 0 Z " fill="#5A40A1" transform="translate(145,147)"/>
<path d="M0 0 C2.64 0.33 5.28 0.66 8 1 C7.88590407 2.45922693 7.75834456 3.91740598 7.625 5.375 C7.55539063 6.18710938 7.48578125 6.99921875 7.4140625 7.8359375 C7 10 7 10 5 12 C2.31160615 12.26991906 -0.29141936 12.08737357 -3 12 C-3.88336837 9.5332355 -4.1312406 8.36140628 -3.22265625 5.859375 C-2.83980469 5.16328125 -2.45695313 4.4671875 -2.0625 3.75 C-1.68222656 3.04359375 -1.30195313 2.3371875 -0.91015625 1.609375 C-0.60980469 1.07828125 -0.30945313 0.5471875 0 0 Z " fill="#5A41A2" transform="translate(141,208)"/>
<path d="M0 0 C0.33 0 0.66 0 1 0 C1.00586624 1.06187027 1.01173248 2.12374054 1.01777649 3.2177887 C1.07505311 13.23745043 1.14784067 23.25689616 1.23571491 33.27633762 C1.28039346 38.42712901 1.31965523 43.57784176 1.34643555 48.72875977 C1.37249347 53.70207238 1.41291374 58.67508199 1.46318626 63.64820671 C1.4798381 65.5431128 1.49136284 67.43807129 1.49761391 69.33304024 C1.50727328 71.99261168 1.53535435 74.65141083 1.56762695 77.31079102 C1.56619186 78.0897876 1.56475677 78.86878418 1.5632782 79.67138672 C1.62834581 83.47658745 1.9908164 86.37558207 3.58952332 89.85557556 C5 93 5 93 4 96 C1.73583092 94.34198311 0.19820177 92.98774655 -0.36896515 90.16124725 C-0.492922 87.79950084 -0.49430541 85.46534947 -0.45410156 83.10058594 C-0.45497772 81.75371704 -0.45497772 81.75371704 -0.45587158 80.37963867 C-0.45308668 77.41415641 -0.42197534 74.44968149 -0.390625 71.484375 C-0.38316406 69.42743479 -0.37747044 67.37048746 -0.37347412 65.3135376 C-0.35820628 59.90137078 -0.31891426 54.48963379 -0.2746582 49.07763672 C-0.23373049 43.55442113 -0.21546843 38.03113604 -0.1953125 32.5078125 C-0.15242136 21.67168622 -0.08415587 10.83587886 0 0 Z " fill="#714EB5" transform="translate(248,92)"/>
<path d="M0 0 C2.97 0.33 5.94 0.66 9 1 C7.68 5.29 6.36 9.58 5 14 C1.7 13.01 -1.6 12.02 -5 11 C-3.35 7.37 -1.7 3.74 0 0 Z " fill="#463A67" transform="translate(137,219)"/>
<path d="M0 0 C2.05078125 0.03255208 4.1015625 0.06510417 6.15234375 0.09765625 C5.82234375 3.72765625 5.49234375 7.35765625 5.15234375 11.09765625 C2.51234375 11.42765625 -0.12765625 11.75765625 -2.84765625 12.09765625 C-2.87452904 10.28523573 -2.8939934 8.47270392 -2.91015625 6.66015625 C-2.92175781 5.65082031 -2.93335937 4.64148438 -2.9453125 3.6015625 C-2.81063978 0.1485539 -2.81063978 0.1485539 0 0 Z " fill="#5D43A6" transform="translate(105.84765625,147.90234375)"/>
<path d="M0 0 C1.15628906 0.18046875 2.31257813 0.3609375 3.50390625 0.546875 C6.4375 1.25 6.4375 1.25 8.4375 3.25 C7.55707031 3.18039063 6.67664063 3.11078125 5.76953125 3.0390625 C-1.42948874 2.566277 -1.42948874 2.566277 -7.75 5.5 C-10.66611969 10.10791432 -10.98712665 15.94282493 -11.5625 21.25 C-12.8825 21.25 -14.2025 21.25 -15.5625 21.25 C-14.97801346 16.45721033 -13.49477531 12.6555877 -11.5625 8.25 C-11.0675 6.3628125 -11.0675 6.3628125 -10.5625 4.4375 C-8.6804927 -1.56139828 -5.43220598 -0.89828658 0 0 Z " fill="#885DDE" transform="translate(238.5625,179.75)"/>
<path d="M0 0 C1.258125 -0.020625 2.51625 -0.04125 3.8125 -0.0625 C4.52019531 -0.07410156 5.22789063 -0.08570313 5.95703125 -0.09765625 C8 0 8 0 11 1 C11.66 5.29 12.32 9.58 13 14 C8.52178621 10.43401494 6.00282167 8.3922122 4 3 C1.95894361 2.11306697 1.95894361 2.11306697 0 2 C0 1.34 0 0.68 0 0 Z " fill="#5F44A9" transform="translate(101,203)"/>
<path d="M0 0 C1.82097526 3.61809495 3.55344871 7.21141328 5 11 C4.67 11.99 4.34 12.98 4 14 C2 12.625 2 12.625 0 10 C-0.35791096 6.6419531 -0.23115823 3.36463643 0 0 Z " fill="#402C78" transform="translate(248,174)"/>
<path d="M0 0 C3.63 0.33 7.26 0.66 11 1 C11 1.33 11 1.66 11 2 C8.36 2 5.72 2 3 2 C3.33 2.99 3.66 3.98 4 5 C2.68 4.34 1.36 3.68 0 3 C0 2.01 0 1.02 0 0 Z " fill="#2B2244" transform="translate(115,216)"/>
</svg>
